<?xml version="1.0" encoding="utf-8"?>
<!-- Generator: Adobe Illustrator 21.0.2, SVG Export Plug-In . SVG Version: 6.00 Build 0)  -->
<svg version="1.1" id="Layer_1" xmlns="http://www.w3.org/2000/svg" xmlns:xlink="http://www.w3.org/1999/xlink" x="0px" y="0px"
	 viewBox="0 0 1591.4 324.6" style="enable-background:new 0 0 1591.4 324.6;" xml:space="preserve">
<style type="text/css">
	.st0{fill:#2B6597;}
	.st1{fill:#357DC1;}
</style>
<path class="st0" d="M244.4,75.7c-3.8-3.1-4.4-8.8-1.3-12.7l68.3,56c0-4.3,0-8.5,0-12.8L230,38.9l-81.5,67.3c0,4.4,0,8.9,0,13.3
	l68.9-56.5c3.1,3.8,2.6,9.5-1.3,12.7l-67.6,55.4c0,44.6,0,89.2,0.1,133.8l129.8,0.8c0,4.9-4.1,9-9.1,8.9l-120.8-0.8
	c0,3.4,0,6.8,0,10.2c54.2,0.5,108.4,1,162.6,1.6c0.1-51.7,0.1-103.4,0.2-155L244.4,75.7z M230,198.5c-18.9,0-34.3-15.4-34.3-34.3
	c0-18.9,15.4-34.3,34.3-34.3s34.3,15.4,34.3,34.3C264.3,183.2,248.9,198.5,230,198.5z"/>
<path id="logo" class="st1" d="M256.3,163.3c-7.2-0.2-13.7,3.6-17.2,9.2c8.4,7.6,14.8,17.4,18.1,28.4l10.2,34.1
	c7.5,24.9,30.3,43.4,57.7,44.1l59.9,1.6l-31.8-50.4l-24.4-0.7c-2.7-0.1-4.9-2.3-4.8-5.1s2.3-4.9,5.1-4.8l24.4,0.7
	c16.3,0.4,30.8-6.9,40.2-18.7l-49.1-1.3c-5.5-0.1-9.8-4.8-9.7-10.2l64.7,1.7c2.8-6,4.5-12.6,4.6-19.7l-78.8-2.1
	c-5.5-0.1-9.8-4.8-9.7-10.2l88.7,2.4l0.5-19.8l-103.6-2.8c-10.9-0.3-20,8.3-20.3,19.2c-0.1,4.1,1,8,3,11.1l19.8,31.4
	c0.5,0.7,0.8,1.7,0.7,2.7c-0.1,2.7-2.3,4.9-5.1,4.8c-1.6,0-3.1-0.9-4-2.2l-23.5-34.9C268.8,167,262.9,163.5,256.3,163.3L256.3,163.3
	z M252.3,173.1c0.1-2,1.8-3.7,3.8-3.6c2,0.1,3.7,1.8,3.6,3.8c-0.1,2-1.8,3.7-3.8,3.6C253.8,176.9,252.3,175.2,252.3,173.1z"/>
<g>
	<path class="st1" d="M449.9,232.5V93.6H523c26.4,0,40,16.9,40,35.4c0,17.3-10.8,29.1-23.9,31.9c15,2.3,26.6,16.7,26.6,33.9
		c0,21-13.7,37.7-40.4,37.7H449.9z M532.7,134.2c0-8.5-6.2-14.6-16.2-14.6h-37.1v29.1h37.1C526.5,148.8,532.7,143.2,532.7,134.2z
		 M535.4,190.6c0-8.7-6.2-15.8-17.7-15.8h-38.3v31.6h38.3C528.8,206.4,535.4,200.6,535.4,190.6z"/>
	<path class="st1" d="M584.8,105.3c0-8.7,7.1-15.6,15.6-15.6c8.7,0,15.8,6.9,15.8,15.6s-7.1,15.8-15.8,15.8
		C591.9,121.1,584.8,114,584.8,105.3z M587.3,232.5V131.9h26.4v100.6H587.3z"/>
	<path class="st1" d="M640,232.5V131.9h26.4v13.5c7.3-8.7,19.6-16,32.1-16v25.8c-1.9-0.4-4.2-0.6-7.3-0.6c-8.7,0-20.4,5-24.8,11.5
		v66.4H640z"/>
	<path class="st1" d="M784,232.5v-12.9c-7.9,10-18.7,15.4-31,15.4c-25.2,0-44.6-19.2-44.6-52.9c0-32.7,18.9-52.7,44.6-52.7
		c11.9,0,23.1,5,31,15.4V93.6h26.6v138.9H784z M784,200v-35.6c-4.4-6.7-13.9-11.5-22.7-11.5c-15.2,0-25.6,11.9-25.6,29.1
		c0,17.5,10.4,29.4,25.6,29.4C770.1,211.4,779.7,206.7,784,200z"/>
	<path class="st1" d="M837.5,232.5V93.6h98.3v26h-68.7v29.1h67.2v26h-67.2v57.7H837.5z"/>
	<path class="st1" d="M949.3,182.1c0-29.1,21.7-52.7,52-52.7c30.2,0,50.4,22.5,50.4,55.2v6.2H977c1.9,12.3,11.9,22.5,28.9,22.5
		c8.5,0,20.2-3.5,26.6-9.8l11.9,17.5c-10,9.2-25.8,13.9-41.4,13.9C972.5,235,949.3,214.4,949.3,182.1z M1001.4,151.1
		c-16.4,0-23.5,11.5-24.6,21.4h49.6C1025.5,162.9,1018.9,151.1,1001.4,151.1z"/>
	<path class="st1" d="M1064.5,182.1c0-29.1,21.7-52.7,52-52.7c30.2,0,50.4,22.5,50.4,55.2v6.2h-74.7c1.9,12.3,11.9,22.5,28.9,22.5
		c8.5,0,20.2-3.5,26.6-9.8l11.9,17.5c-10,9.2-25.8,13.9-41.4,13.9C1087.6,235,1064.5,214.4,1064.5,182.1z M1116.5,151.1
		c-16.4,0-23.5,11.5-24.6,21.4h49.6C1140.7,162.9,1134,151.1,1116.5,151.1z"/>
	<path class="st1" d="M1255.2,232.5v-12.9c-7.9,10-18.7,15.4-31,15.4c-25.2,0-44.6-19.2-44.6-52.9c0-32.7,18.9-52.7,44.6-52.7
		c11.9,0,23.1,5,31,15.4V93.6h26.6v138.9H1255.2z M1255.2,200v-35.6c-4.4-6.7-13.9-11.5-22.7-11.5c-15.2,0-25.6,11.9-25.6,29.1
		c0,17.5,10.4,29.4,25.6,29.4C1241.2,211.4,1250.8,206.7,1255.2,200z"/>
	<path class="st1" d="M1301.6,182.1c0-29.1,21.7-52.7,52-52.7c30.2,0,50.4,22.5,50.4,55.2v6.2h-74.7c1.9,12.3,11.9,22.5,28.9,22.5
		c8.5,0,20.2-3.5,26.6-9.8l11.9,17.5c-10,9.2-25.8,13.9-41.4,13.9C1324.7,235,1301.6,214.4,1301.6,182.1z M1353.7,151.1
		c-16.4,0-23.5,11.5-24.6,21.4h49.6C1377.8,162.9,1371.2,151.1,1353.7,151.1z"/>
	<path class="st1" d="M1423.2,232.5V131.9h26.4v13.5c7.3-8.7,19.6-16,32.1-16v25.8c-1.9-0.4-4.2-0.6-7.3-0.6
		c-8.7,0-20.4,5-24.8,11.5v66.4H1423.2z"/>
</g>
</svg>
